<?xml version="1.0" encoding="UTF-8"?>
<!-- Generator: visioncortex VTracer 0.6.2 -->
<svg version="1.1" xmlns="http://www.w3.org/2000/svg" width="1280" height="1038">
<path d="M0 0 C422.4 0 844.8 0 1280 0 C1280 342.54 1280 685.08 1280 1038 C857.6 1038 435.2 1038 0 1038 C0 695.46 0 352.92 0 0 Z " fill="#003D2B" transform="translate(0,0)"/>
<path d="M0 0 C73.10929814 -0.0171304 146.21859652 -0.03303112 219.32789612 -0.04234314 C220.94959207 -0.04255023 220.94959207 -0.04255023 222.60404957 -0.04276149 C246.09694501 -0.04575403 269.58984048 -0.04852427 293.08273598 -0.05106533 C304.60276475 -0.05231272 316.12279351 -0.05360927 327.64282227 -0.05493164 C329.36244265 -0.05512778 329.36244265 -0.05512778 331.11680283 -0.05532788 C368.3107017 -0.05959324 405.50459906 -0.06710754 442.69849701 -0.07629722 C480.90322257 -0.08571956 519.1079473 -0.09188306 557.31267401 -0.09391499 C562.70229051 -0.09420317 568.09190701 -0.0945288 573.48152351 -0.09487724 C574.54233251 -0.09494467 575.60314151 -0.09501209 576.69609623 -0.09508156 C593.80854889 -0.0962657 610.92099897 -0.10091029 628.03345058 -0.10683203 C645.21521042 -0.11270453 662.39696768 -0.11497169 679.57872849 -0.11350138 C689.80095455 -0.11273775 700.02317122 -0.11479562 710.2453956 -0.12079754 C717.06052011 -0.12452752 723.87563842 -0.12467781 730.69076335 -0.12183181 C734.5824375 -0.12031167 738.47409381 -0.12042882 742.3657661 -0.12488318 C746.54333389 -0.12962882 750.72086012 -0.12676678 754.89842892 -0.12304783 C756.12633486 -0.12567484 757.3542408 -0.12830186 758.61935601 -0.13100848 C760.27187344 -0.12763754 760.27187344 -0.12763754 761.95777506 -0.1241985 C763.39318675 -0.12443247 763.39318675 -0.12443247 764.85759666 -0.12467116 C767 0 767 0 768 1 C768.09605864 2.63223456 768.12187821 4.2686439 768.12025452 5.90370178 C768.12162918 6.96525986 768.12300385 8.02681793 768.12442017 9.12054443 C768.12082489 10.29514221 768.11722961 11.46973999 768.11352539 12.67993164 C768.11367142 13.90902756 768.11381744 15.13812347 768.1139679 16.40446472 C768.11338892 19.78448672 768.10835964 23.16444829 768.10139394 26.54445958 C768.09515988 30.07321194 768.09455656 33.60196503 768.09336853 37.13072205 C768.09025537 43.81723119 768.08204218 50.50372406 768.07201904 57.19022602 C768.06085744 64.80074303 768.05534733 72.4112608 768.05032361 80.02178395 C768.03985956 95.68119874 768.02226041 111.34059727 768 127 C762.03686834 127.02464574 756.07376605 127.042834 750.1105957 127.05493164 C748.08031702 127.05997278 746.05004198 127.06680557 744.01977539 127.07543945 C741.10822653 127.08751467 738.1967255 127.09323034 735.28515625 127.09765625 C734.3716188 127.10281754 733.45808136 127.10797882 732.51686096 127.11329651 C730.34424573 127.11349168 728.17172704 127.06211805 726 127 C706.19539896 107.19539896 724.33742052 71.0059028 724 43 C499.6 43 275.2 43 44 43 C44 268.06 44 493.12 44 725 C268.73 725 493.46 725 725 725 C725 697.28 725 669.56 725 641 C727 639 727 639 730.89892578 638.77294922 C732.58108793 638.77326659 734.26327019 638.78460604 735.9453125 638.8046875 C737.27283035 638.80893234 737.27283035 638.80893234 738.62716675 638.81326294 C741.45991412 638.8244776 744.29234784 638.8495843 747.125 638.875 C749.04296419 638.88502815 750.96093333 638.89415428 752.87890625 638.90234375 C757.58605876 638.92442111 762.29297616 638.95895955 767 639 C768.25587582 641.51175164 768.12304933 643.212369 768.12025452 646.0239563 C768.12162918 647.08688904 768.12300385 648.14982178 768.12442017 649.2449646 C768.12082489 650.4159671 768.11722961 651.5869696 768.11352539 652.79345703 C768.11367142 654.02269897 768.11381744 655.25194092 768.1139679 656.51843262 C768.11338954 659.89426342 768.10836537 663.27003348 768.10139394 666.64585352 C768.09515358 670.17193073 768.09455606 673.6980087 768.09336853 677.22409058 C768.09025723 683.90348324 768.08204655 690.58285959 768.07201904 697.26224506 C768.06085166 704.86553025 768.05534588 712.46881621 768.05032361 720.07210755 C768.03986378 735.71474783 768.02226822 751.35737181 768 767 C694.89070186 767.0171304 621.78140348 767.03303112 548.67210388 767.04234314 C547.05040793 767.04255023 547.05040793 767.04255023 545.39595043 767.04276149 C521.90305499 767.04575403 498.41015952 767.04852427 474.91726402 767.05106533 C463.39723525 767.05231272 451.87720649 767.05360927 440.35717773 767.05493164 C438.63755735 767.05512778 438.63755735 767.05512778 436.88319717 767.05532788 C399.6892983 767.05959324 362.49540094 767.06710754 325.30150299 767.07629722 C287.09677743 767.08571956 248.8920527 767.09188306 210.68732599 767.09391499 C205.29770949 767.09420317 199.90809299 767.0945288 194.51847649 767.09487724 C193.45766749 767.09494467 192.39685849 767.09501209 191.30390377 767.09508156 C174.19145111 767.0962657 157.07900103 767.10091029 139.96654942 767.10683203 C122.78478958 767.11270453 105.60303232 767.11497169 88.42127151 767.11350138 C78.19904545 767.11273775 67.97682878 767.11479562 57.7546044 767.12079754 C50.93947989 767.12452752 44.12436158 767.12467781 37.30923665 767.12183181 C33.4175625 767.12031167 29.52590619 767.12042882 25.6342339 767.12488318 C21.45666611 767.12962882 17.27913988 767.12676678 13.10157108 767.12304783 C11.87366514 767.12567484 10.6457592 767.12830186 9.38064399 767.13100848 C8.27896571 767.12876118 7.17728742 767.12651389 6.04222494 767.1241985 C5.08528381 767.12435448 4.12834268 767.12451046 3.14240334 767.12467116 C1 767 1 767 0 766 C-0.09766588 764.32372803 -0.12447255 762.64330181 -0.1241985 760.96418709 C-0.12644579 759.86394222 -0.12869308 758.76369735 -0.13100848 757.63011172 C-0.12838146 756.40381013 -0.12575445 755.17750854 -0.12304783 753.91404629 C-0.1247786 751.97237416 -0.1247786 751.97237416 -0.12654433 749.99147633 C-0.12963358 746.36574134 -0.12642159 742.74003408 -0.12226619 739.11430114 C-0.11884913 735.18221422 -0.1211995 731.25013028 -0.12284368 727.31804281 C-0.12492346 720.41576833 -0.1232634 713.51350243 -0.11920547 706.61122894 C-0.11318811 696.3476856 -0.11286802 686.08414772 -0.11374746 675.82060294 C-0.11506362 658.55846466 -0.1117114 641.2963302 -0.10573006 624.03419304 C-0.09981997 606.93403034 -0.09596552 589.83386923 -0.09487724 572.73370552 C-0.0948085 571.67183263 -0.09473976 570.60995973 -0.09466894 569.51590887 C-0.09433062 564.12354343 -0.09402923 558.73117798 -0.09374207 553.33881254 C-0.09163973 515.11055819 -0.08489703 476.88230591 -0.07543945 438.65405273 C-0.06626017 401.50789399 -0.05917404 364.36173582 -0.05493164 327.21557617 C-0.05473435 325.49910322 -0.05473435 325.49910322 -0.05453308 323.74795404 C-0.0532146 312.25662933 -0.05193878 300.7653046 -0.05069422 289.27397988 C-0.04815777 265.86328168 -0.04533652 242.45258352 -0.04234314 219.04188538 C-0.04220585 217.96541815 -0.04206856 216.88895093 -0.04192711 215.77986348 C-0.03272111 143.85324146 -0.01687529 71.92662058 0 0 Z " fill="#E2EEE7" transform="translate(207,118)"/>
<path d="M0 0 C1 1 1 1 1.20410156 3.78808594 C1.11587535 9.41706145 -0.16109197 14.89059094 -1.265625 20.390625 C-1.6176297 22.16297516 -1.6176297 22.16297516 -1.97674561 23.97113037 C-2.47412756 26.45968532 -2.97528511 28.94748826 -3.47998047 31.43457031 C-4.24950088 35.24752685 -4.99422862 39.0648157 -5.73828125 42.8828125 C-6.22504687 45.30238874 -6.71327777 47.72167076 -7.203125 50.140625 C-7.42309143 51.28436584 -7.64305786 52.42810669 -7.86968994 53.60650635 C-8.08961609 54.66480652 -8.30954224 55.72310669 -8.53613281 56.81347656 C-8.81592987 58.21076996 -8.81592987 58.21076996 -9.10137939 59.6362915 C-10.20044423 62.52724334 -11.32437001 63.50023341 -14 65 C-18.78510008 64.78673649 -22.81061642 62.92004708 -27.125 61 C-52.16636108 50.34906318 -79.786239 42.15419551 -107 40 C-107.7537793 39.93441895 -108.50755859 39.86883789 -109.28417969 39.80126953 C-135.04581663 37.63978007 -163.89697088 39.89179045 -184.5 57.25 C-197.02485503 69.60645362 -202.41868679 83.88882507 -202.5625 101.1875 C-202.4482107 109.67962899 -201.40418575 117.14253982 -198 125 C-197.61070312 125.98742187 -197.22140625 126.97484375 -196.8203125 127.9921875 C-191.15056816 140.90846898 -180.67544811 150.46390393 -169 158 C-168.30890137 158.46341797 -167.61780273 158.92683594 -166.90576172 159.40429688 C-152.35198995 169.13749613 -137.09698261 176.2091899 -121 183 C-118.64373966 184.00856933 -116.28827066 185.01898939 -113.93359375 186.03125 C-109.25205817 188.04261233 -104.56839453 190.04886428 -99.8828125 192.05078125 C-66.27820708 206.43172923 -66.27820708 206.43172923 -52 214 C-51.33709961 214.34740234 -50.67419922 214.69480469 -49.99121094 215.05273438 C-29.00563553 226.12707403 -11.92084481 240.97920427 1 261 C1.65742187 261.99644531 2.31484375 262.99289062 2.9921875 264.01953125 C12.60493954 279.42881403 15.36741447 296.02718982 15.31567383 313.90454102 C15.31252895 316.16667645 15.3360011 318.42747966 15.36132812 320.68945312 C15.50597489 353.86523821 1.16448581 383.80715027 -21 408 C-23.53155662 410.52629351 -26.21124815 412.76347624 -29 415 C-30.10234342 415.92354786 -31.2038276 416.8481218 -32.3046875 417.7734375 C-62.08812415 442.53035072 -101.17353719 457.03347446 -139.97265625 457.203125 C-141.0128038 457.20882507 -142.05295135 457.21452515 -143.12461853 457.22039795 C-145.32403564 457.22980485 -147.52346657 457.23636469 -149.72290039 457.24023438 C-153.00108405 457.24982041 -156.27860687 457.28083535 -159.55664062 457.3125 C-174.25329427 457.38636401 -188.47799772 456.237788 -203 454 C-204.26497314 453.80647949 -205.52994629 453.61295898 -206.83325195 453.41357422 C-209.77580634 452.92768135 -212.69952119 452.39177239 -215.625 451.8125 C-216.67800293 451.6052832 -217.73100586 451.39806641 -218.81591797 451.18457031 C-281.61133924 438.38866076 -281.61133924 438.38866076 -293 427 C-292.82347386 419.74221191 -291.27103824 412.54085324 -289.85546875 405.4453125 C-289.64440994 404.38134247 -289.43335114 403.31737244 -289.21589661 402.22116089 C-288.77065423 399.9903082 -288.32259119 397.76001678 -287.87182617 395.53027344 C-287.18582015 392.11664093 -286.52155957 388.69919509 -285.85742188 385.28125 C-285.42060538 383.10650235 -284.98249956 380.93201319 -284.54296875 378.7578125 C-284.34801315 377.738013 -284.15305756 376.7182135 -283.95219421 375.66751099 C-282.1286418 366.87380427 -282.1286418 366.87380427 -278 364 C-274.86345288 362.70406137 -272.94890687 362.62294538 -269.78320312 363.88085938 C-267.05791615 365.26169999 -264.40611142 366.7403936 -261.75 368.25 C-218.95731088 391.49393022 -163.27365995 411.30007378 -114.26855469 397.69335938 C-103.37152299 394.36279867 -93.21135719 389.77034753 -84 383 C-83.3090625 382.50371094 -82.618125 382.00742187 -81.90625 381.49609375 C-69.68479962 371.82077887 -62.21271669 357.44736312 -60.1875 342.125 C-60.10100781 340.75130049 -60.03733098 339.37591339 -60 338 C-59.94199219 337.00226563 -59.94199219 337.00226563 -59.8828125 335.984375 C-59.25359712 317.1079137 -65.08787876 301.83273742 -77.6796875 287.97265625 C-84.88788432 280.52963149 -92.54730778 274.39590728 -101.96508789 270.02001953 C-103.9432652 269.02843887 -105.72012782 267.91395886 -107.5625 266.69140625 C-112.44350639 263.61456694 -117.58541848 261.34380905 -122.875 259.0625 C-123.93638184 258.5994043 -124.99776367 258.13630859 -126.09130859 257.65917969 C-136.94632955 252.95683352 -147.89344475 248.4732157 -158.85888672 244.03540039 C-168.04900713 240.30272014 -177.04218823 236.25775747 -186 232 C-187.70861616 231.2074344 -189.41811334 230.41676224 -191.12890625 229.62890625 C-225.31770896 213.76461383 -257.19083444 191.81148705 -271.3125 155.4375 C-282.16074151 123.27678401 -278.71538404 87.49965363 -264.22167969 57.15991211 C-258.75026052 46.18791654 -251.47094175 36.84882762 -243 28 C-242.45085938 27.39929688 -241.90171875 26.79859375 -241.3359375 26.1796875 C-185.0948244 -33.38602342 -70.08145622 -25.69449551 0 0 Z " fill="#6DD34F" transform="translate(1083,281)"/>
<path d="M0 0 C1 1 1 1 1.19262695 4.34106445 C1.11765914 9.86042596 0.00726851 15.14809056 -1.08203125 20.54296875 C-1.40429939 22.1729052 -1.40429939 22.1729052 -1.733078 23.83576965 C-2.18742762 26.12166835 -2.64569646 28.40679118 -3.10766602 30.69116211 C-3.81184739 34.18426274 -4.49744846 37.68067036 -5.18164062 41.17773438 C-5.62648726 43.40386932 -6.0724139 45.62978877 -6.51953125 47.85546875 C-6.72278519 48.89825485 -6.92603912 49.94104095 -7.13545227 51.01542664 C-9.05808995 60.38762572 -9.05808995 60.38762572 -12 64 C-15.58521443 65.27217286 -17.41591958 65.21093908 -20.99609375 63.91796875 C-22.13175781 63.34691406 -23.26742188 62.77585937 -24.4375 62.1875 C-49.23039232 50.53176935 -78.7509829 42.24704838 -106 40 C-106.77053711 39.93441895 -107.54107422 39.86883789 -108.33496094 39.80126953 C-132.35164871 37.87011666 -159.89212562 38.95201899 -179.84765625 54.171875 C-182.34643992 56.3578396 -184.68843928 58.61801539 -187 61 C-187.65742187 61.64839844 -188.31484375 62.29679687 -188.9921875 62.96484375 C-199.50954129 74.0012944 -202.50580442 89.00062853 -202.42382812 103.77685547 C-201.89758594 121.64419992 -194.36560905 135.43213115 -182 148 C-166.43798767 162.09909837 -147.22788338 171.96971352 -128 180 C-126.00605122 180.84527176 -124.01258138 181.69167399 -122.01953125 182.5390625 C-117.67838624 184.38122846 -113.33421697 186.21604207 -108.98828125 188.046875 C-22.3080077 224.62415357 -22.3080077 224.62415357 2 262 C2.58265625 262.84820313 3.1653125 263.69640625 3.765625 264.5703125 C18.86767859 287.68103087 18.62599529 319.95616839 13.1875 346.015625 C8.47616167 367.07568831 -1.48867683 384.35998278 -15 401 C-15.55558594 401.69867187 -16.11117188 402.39734375 -16.68359375 403.1171875 C-20.35759505 407.59767689 -24.59173083 411.2596504 -29 415 C-29.639375 415.5775 -30.27875 416.155 -30.9375 416.75 C-35.99398617 421.3171488 -41.30986303 425.25607746 -47 429 C-48.0209375 429.68964844 -49.041875 430.37929688 -50.09375 431.08984375 C-68.02306397 442.78039021 -89.14991874 449.70128154 -110 454 C-111.2573999 454.26780273 -112.5147998 454.53560547 -113.81030273 454.81152344 C-125.82267271 457.19231653 -137.66520431 457.46170573 -149.8840332 457.39111328 C-153.16595564 457.37510509 -156.44663147 457.39101131 -159.72851562 457.41015625 C-174.03945151 457.42456739 -187.87132777 456.23599876 -202 454 C-203.26884033 453.80664062 -204.53768066 453.61328125 -205.8449707 453.4140625 C-235.74911928 448.63765867 -266.02045777 441.04668827 -293 427 C-291.51961862 416.04517782 -289.29781076 405.25996194 -287.05883789 394.44018555 C-286.43248261 391.41325292 -285.81057713 388.38543188 -285.18945312 385.35742188 C-284.79191973 383.42442711 -284.39414222 381.49148252 -283.99609375 379.55859375 C-283.81066513 378.65757431 -283.62523651 377.75655487 -283.43418884 376.82823181 C-283.26053299 375.98958084 -283.08687714 375.15092987 -282.90795898 374.28686523 C-282.68051247 373.18652199 -282.68051247 373.18652199 -282.44847107 372.06394958 C-282.22647789 371.04229454 -282.22647789 371.04229454 -282 370 C-281.86139053 369.28896622 -281.72278107 368.57793243 -281.57997131 367.84535217 C-281 366 -281 366 -278.8125 364.1875 C-275.23837931 362.67842682 -273.75406116 363.06259538 -270 364 C-267.369063 365.17772023 -264.88368401 366.58352612 -262.375 368 C-219.20056493 391.5145213 -163.49995415 411.15431019 -114.16943359 397.64599609 C-93.40133157 391.46184147 -77.26981682 380.55759562 -66 362 C-64.29152093 358.73040394 -63.02187946 355.54093115 -62 352 C-61.77828125 351.27296875 -61.5565625 350.5459375 -61.328125 349.796875 C-57.28963225 333.75205243 -59.2746001 315.15840776 -67.67163086 300.9831543 C-71.17656738 295.4083049 -75.36617511 290.64909285 -80 286 C-80.50708496 285.45577393 -81.01416992 284.91154785 -81.53662109 284.35083008 C-85.78039281 279.89189998 -90.20498894 276.67145456 -95.5 273.5625 C-96.20125 273.13646484 -96.9025 272.71042969 -97.625 272.27148438 C-100.06326269 270.80981457 -102.52533883 269.39922121 -105 268 C-106.59775269 267.09278198 -106.59775269 267.09278198 -108.2277832 266.16723633 C-118.53227525 260.43440835 -129.26570338 255.97347831 -140.1875 251.5625 C-162.51604895 242.49785668 -184.35969926 232.60303681 -206 222 C-206.69770508 221.66258789 -207.39541016 221.32517578 -208.11425781 220.97753906 C-221.86856392 214.28322947 -233.98268365 204.52932619 -245 194 C-245.82886719 193.24589844 -246.65773438 192.49179687 -247.51171875 191.71484375 C-254.41288792 185.21527401 -259.25725427 178.12772728 -264 170 C-264.49371094 169.15695312 -264.98742187 168.31390625 -265.49609375 167.4453125 C-279.73104352 141.10400358 -280.4201598 107.0195425 -272.35693359 78.7265625 C-262.82456154 47.68308538 -242.55766111 21.09305941 -213.65087891 5.75341797 C-150.56648701 -26.67980046 -65.9577519 -24.18259054 0 0 Z " fill="#6DD44F" transform="translate(702,281)"/>
</svg>
